<svg xmlns="http://www.w3.org/2000/svg" width="1952" height="846"><path d="M0 0h1952v846H0V0Z" fill="#211E1F"/><path d="M370 231c2.813 1 2.813 1 5 2v2h4v2h4v3l2.375.438C388 241 388 241 390 242v2l1.75.418c5.743 1.486 10.269 2.988 14.25 7.582l2 1v3l1.64.309c2.966.869 5.415 2.246 8.11 3.753l2.984 1.66L423 263v2h5v2l4 1v2l2.375.438C437 271 437 271 439 272v2l1.75.438L447 276v2c2.652 1.075 5.284 2.095 8 3v2l7 2v2l2.52.715c4.078 1.506 7.497 3.55 11.168 5.848 4.947 3.134 4.947 3.134 10.312 5.437v2l1.813.438c1.749.45 3.474.99 5.187 1.562v2l9 3v2l3.438.875L509 312l1 2a160.565 160.565 0 0 0 7 3v2h3v2l2.063.25c3.812.973 6.578 2.708 9.937 4.75v2l1.898.184 2.477.253 2.46.247C541 329 541 329 543 330c.047 26.694.082 53.388.104 80.082.01 12.394.024 24.788.047 37.182.02 10.798.033 21.597.037 32.396.003 5.721.009 11.442.023 17.163.014 5.38.018 10.76.015 16.138 0 1.98.005 3.96.012 5.939.01 2.692.008 5.384.003 8.077l.017 2.4c-.03 5.395-.03 5.395-2.258 7.623-2.059.852-2.059.852-4.438 1.625-.782.26-1.564.52-2.37.79C532 540 532 540 529 540v2l-3.438.813L522 544l-1 3h-4v2l-1.574.77c-3.165 1.561-6.24 3.114-9.239 4.98C504 556 504 556 501 556v2l-2.117 1.023-2.758 1.352-2.742 1.336c-2.478 1.194-2.478 1.194-4.383 3.289h-3v2c-2.23 1.621-2.23 1.621-5.188 3.438l-2.917 1.808a394.599 394.599 0 0 1-5.633 3.352c-2.349 1.337-2.349 1.337-4.262 3.402a96.064 96.064 0 0 1-5.438 2.125l-2.933 1.07C457 583 457 583 454 583v2h-3v3h-3v2l-9 2v2c-3 2-3 2-7 2v2l-4 1v2c-3.435 2.29-4.985 2.178-9 2v2h-3v2c-5.75 3-5.75 3-8 3v2c-3.769 1.97-7.362 3.803-11.438 5.063L394 618l-1 3h-5v2h-3v2c-1.247.65-2.498 1.296-3.75 1.938l-2.11 1.09c-2.042.928-3.951 1.504-6.14 1.972v2h-4v2h-3v-2h-3v-2h-5l-1-2c-5.18-3.276-5.18-3.276-11-5v-2l-1.563-.25c-3.482-1.071-6.309-2.885-9.437-4.75v-2l-2.313-.438C330 613 330 613 327 612l-1-2a74.489 74.489 0 0 0-5.25-1.375c-4.56-1.168-7.21-2.467-10.75-5.625-2.615-1.445-5.293-2.737-8-4v-2l-2.188-.313c-3.112-.76-5.22-1.815-7.812-3.687l-1-3c-1.724-1.166-1.724-1.166-3.813-2.063l-2.082-.972L283 586a562.928 562.928 0 0 1-4-2v-2l-2.5-.75c-4.024-1.437-7.72-3.274-11.5-5.25v-2h-4l-1-2a134.078 134.078 0 0 0-6-3v-2l-2.25.125c-2.838-.129-4.338-.696-6.75-2.125v-2a613.684 613.684 0 0 0-6.734-3.332c-5.342-2.622-10.47-5.328-15.453-8.578-1.832-1.102-3.645-1.918-5.625-2.715C214 547 214 547 212.563 545.551c-1.784-1.77-3.488-2.663-5.75-3.739l-2.168-1.042L203 540v-2h-3v-2l-7-2c-.14-26.399-.246-52.797-.31-79.196-.032-12.258-.074-24.514-.143-36.771-.06-10.681-.098-21.362-.112-32.043-.007-5.658-.026-11.315-.07-16.972a1710.3 1710.3 0 0 1-.044-15.966 539.05 539.05 0 0 0-.036-5.868c-.03-2.666-.023-5.33-.007-7.996l-.052-2.359c.036-2.166.036-2.166.774-5.829 2.876-2.416 2.876-2.416 6-4l2.71-1.527 2.665-1.41c4.112-2.2 8.028-4.54 11.871-7.18C218 316 218 316 222 316v-2h2v-3h4v-2a1913.12 1913.12 0 0 1 5.75-2.438l3.234-1.37c2.357-.932 4.546-1.67 7.016-2.192v-3l1.688-.7c4.849-2.072 9.229-4.37 13.585-7.347C261 291 261 291 264 291v-2c2.561-2.296 3.48-3 7-3v-2h4v-2l3.5-1.188c3.77-1.413 6.946-3.23 10.305-5.43 2.486-1.565 5.039-2.94 7.632-4.32 4.34-2.331 8.385-4.91 12.446-7.69 2.614-1.694 5.324-3.027 8.133-4.364 2.868-1.457 5.533-3.195 8.222-4.957C327 253 327 253 330 252l1.75-1.875c2.318-2.189 4.37-3.064 7.313-4.2 3.05-1.457 5.538-3.58 8.14-5.718C349 239 349 239 352 239v-2l1.828-.55c4.98-1.516 4.98-1.516 9.422-4.137 2.398-1.799 3.81-1.672 6.75-1.313Z" fill="#5A3123"/><path d="M651 243c22.298-.022 44.594.071 66.892.236 6.118.045 12.235.084 18.353.11 6 .027 11.999.067 17.998.117 2.257.017 4.514.028 6.771.035 23.79.073 47.652 1.374 66.236 18.065 8.533 9.112 11.985 20.202 12.75 32.437l.21 3.125c.482 14.2-4.219 26.307-13.398 37.063C819.26 342.159 810.405 348.344 800 352h-3a592.772 592.772 0 0 0 18.813 29.875l2.65 3.958c13.78 22.02 13.78 22.02 30.283 41.862C850 429 850 429 850 431l1.563.75c2.437 1.25 2.437 1.25 5.5 3.188 3.998 2.334 8.206 3.358 12.68 4.449C872 440 872 440 873 441c.099 1.623.13 3.25.125 4.875l.008 2.68C873 451 873 451 872 454c-8.658.396-17.312.697-25.977.88-4.025.09-8.043.209-12.065.402-25.88 1.216-25.88 1.216-32.548-2.868-3.972-3.792-6.324-8.118-8.405-13.15-1.712-3.856-4.113-7.261-6.442-10.764-2.906-4.633-5.619-9.353-8.257-14.143-2.285-4.124-4.646-8.205-6.994-12.295C755.793 374.94 755.793 374.94 749 361l-21-1c.415 14.888.94 29.76 1.875 44.625l.2 3.565c.552 8.21 1.18 16.936 6.05 23.81 8.297 5.772 19.115 6.42 28.875 8 .027 1.792.046 3.583.063 5.375l.035 3.023C765 451 765 451 764 453l-3.26-.007c-10.18-.02-20.36-.035-30.54-.045-5.232-.005-10.465-.012-15.697-.023-5.058-.011-10.115-.017-15.172-.02-1.922-.002-3.843-.005-5.765-.01-13.568-.048-13.568-.048-27.097.884-4.152.372-8.305.304-12.469.221-1.322-2.645-1.097-4.678-1.063-7.625l.028-3.04L653 441l3.438-1.688c3.978-1.978 7.834-4.135 11.68-6.359C670 432 670 432 672 432c1.559-2.998 2.863-6.028 4.063-9.188l1.035-2.667c2.265-7.894 2.05-16.124 2.047-24.267l.01-3.581c.01-3.887.012-7.774.013-11.66l.005-4.042c.009-7.055.013-14.11.012-21.166 0-6.546.01-13.09.026-19.636a6945 6945 0 0 0 .018-16.939c0-3.36.003-6.72.013-10.081.01-3.754.007-7.508 0-11.263.01-1.639.01-1.639.018-3.311-.035-15.736-.035-15.736-7.26-29.199-4.44-3.445-8.451-4.948-13.813-6.188C651.1 257.1 651.1 257.1 650 256a76.522 76.522 0 0 1-.125-4.875l-.008-2.68C650 246 650 246 651 243Z" fill="#F7F7F7"/><path d="M1084 310c1.661 1.195 1.661 1.195 3 3 .34 2.452.34 2.452.293 5.324l-.03 3.115-.075 3.248-.042 3.284A815.254 815.254 0 0 1 1087 336l1.657-1.612c13.897-13.33 31.982-20.917 51.19-20.599 10.987.408 18.868 3.632 26.403 11.586 2.26 3.39 4.03 6.938 5.75 10.625 3.176-1.399 5.806-3.29 8.567-5.377 15.786-11.854 32.515-18.07 52.433-16.623 10.452 1.523 17.569 4.49 24.395 12.688 10.03 14.447 8.383 36.219 8.816 53.132-1.118 27.942-1.118 27.942 8.039 52.993 4.991 3.97 10.687 5.578 16.75 7.187.027 1.958.046 3.917.063 5.875l.035 3.305C1291 452 1291 452 1290 454h-79c-2.274-4.548-3.313-8.002-2-13 1.84-1.827 3.794-3.091 5.965-4.504 6.363-4.678 7.5-14.056 8.748-21.357.847-6.318.726-12.726.678-19.089-.016-2.547 0-5.093.02-7.64.055-18.718.055-18.718-7.411-35.41-5.069-3.99-9.761-6.26-16.238-6.23l-2.987.005-3.088.038-3.052.001c-5.633.033-11.064.354-16.635 1.186l.485 3.275c.676 5.434.707 10.85.761 16.319l.1 6.812c.047 3.537.091 7.073.13 10.61-1.163 24.99-1.163 24.99 6.899 47.757 2.096 1.582 4.263 2.706 6.625 3.852l2.625 1.29c2.441 1.167 2.441 1.167 5.375 2.085 1.176 2.353 1.134 3.82 1.125 6.438l.008 2.37C1199 451 1199 451 1198 454h-78c0-13 0-13 4.313-17.375l2.492-1.883c5.206-4.132 5.76-10.726 6.765-16.925.806-7.157.763-14.33.746-21.525-.003-2.721.02-5.44.045-8.161.044-11.758-.05-22.824-6.361-33.131v-2h-2v-2l-2.25-.875c-2.75-1.125-2.75-1.125-4.616-2.18-2.505-1.11-4.29-1.189-7.02-1.175l-2.846.005-2.956.038-2.896.001c-5.875.036-11.587.486-17.416 1.186.085 7.86.18 15.719.288 23.578.05 3.65.095 7.301.134 10.952.037 3.534.084 7.068.136 10.601.027 1.981.045 3.962.063 5.943-.05 18.752-.05 18.752 8.191 34.738 4.558 3.128 9.057 5.136 14.188 7.188v13l-4.387-.219c-26.139-1.204-52.495-1.64-78.613.219-1.382-2.765-1.095-5.046-1.063-8.125l.028-3.32L1025 440l2.484-1.102c8.365-3.695 8.365-3.695 13.516-10.898 2.596-7.677 3.446-14.736 3.398-22.809l.01-3.296c.001-2.285-.004-4.57-.017-6.855-.016-3.465 0-6.929.02-10.394-.003-2.235-.007-4.47-.013-6.705l.019-3.088c-.077-7.987-.6-17.032-5.468-23.634l-2.262-1.719-2.39-1.914c-1.918-1.325-3.798-2.391-5.86-3.461-2.437-2.125-2.437-2.125-2.8-4.586A69.97 69.97 0 0 1 1026 332c14.632-9.222 40.084-24.726 58-22ZM1434.438 330.84c11.322 9.353 18.411 23.706 20.562 38.16.298 4.42.325 8.82.313 13.25l.048 3.45c.007 11.174-1.83 21.63-7.111 31.55l-1.058 2.045c-2.857 5.375-6.101 10.181-10.192 14.705l-1.605 1.848c-10.929 11.81-26.864 18.315-42.395 21.152l-2.805.555c-21.313 2.97-44.373-1.034-62.132-13.493A204.376 204.376 0 0 1 1323 440c-.645-.531-1.29-1.062-1.953-1.61-10.494-9.547-14.807-22.04-18.047-35.39l-.61-2.418c-2.89-19.108 1.041-38.396 11.61-54.582 3.289-4.38 7.052-8.218 11-12l1.906-1.86c28.81-26.364 77.71-23.81 107.532-1.3ZM1693.828 328.48c11.392 10.392 17.557 25.459 18.34 40.653-.248 4.228-1.145 5.926-4.168 8.867-4.269 1.4-8.71 1.363-13.164 1.559l-2.883.128c-13.704.537-27.42.424-41.132.382-3.715-.01-7.43-.015-11.145-.02-7.225-.01-14.45-.028-21.676-.049a889.308 889.308 0 0 0 2.188 9.938l.595 2.806c2.598 11.39 7.731 20.491 17.592 26.943 18.802 11.418 41.818 8.337 62.625 4.313 1.999-.34 3.999-.675 6-1a392.898 392.898 0 0 1 3 5l1.25 2c1.052 2.804.728 4.171-.25 7-12.191 9.949-27.994 15.105-43 19l-2.754.754c-18.513 4.25-40.866 2.165-57.574-7.067-15.201-9.6-25.113-23.198-29.54-40.7-1.438-6.857-1.525-13.753-1.57-20.737l-.03-3.406c.21-20.171 8.077-38.702 22.468-52.844 26.035-22.677 67.674-25.51 94.828-3.52ZM990.95 327.254c11.326 10.53 18.815 25.796 19.55 41.308-.153 3.321-.538 4.505-2.25 7.5-4.361 3.756-9.899 3.254-15.414 3.497l-2.883.128c-13.704.537-27.42.424-41.132.382-3.715-.01-7.43-.015-11.145-.02-7.225-.01-14.45-.028-21.676-.049.78 3.216 1.569 6.43 2.36 9.645l.665 2.746c2.986 12.089 7.725 21.118 18.381 28.21A88.742 88.742 0 0 0 944 424l2.625 1.25c14.596 4.61 32.767 2.445 47.5-.496 3.96-.77 7.87-1.294 11.875-1.754a220.172 220.172 0 0 1 2.063 4.188l1.16 2.355c.97 3.066.988 4.467-.223 7.457-2.59 2.063-2.59 2.063-5.938 4l-1.791 1.042A359.962 359.962 0 0 1 996 445l-2.559 1.45c-22.306 11.923-50.02 15.24-74.5 8.738C902.948 449.743 890.1 439.967 882 425c-1.948-4.59-3.543-9.233-5-14l-.754-2.418c-4.726-18.673-1.611-42.906 7.39-59.621 10.42-16.999 25.846-28.285 45.114-33.461 21.124-5.05 44.806-1.539 62.2 11.754Z" fill="#F6F6F6"/><path d="M394 358v2l2 .563c9.641 4.62 16.599 13.419 20.336 23.203C417 386 417 386 417 389h2c.394 19.08-2.768 31.324-16.313 45.75C398.66 438.6 391.752 445 386 445l-1 3c-1.794.784-1.794.784-4.113 1.352l-2.533.64-2.666.633-2.631.656A945.81 945.81 0 0 1 366 453c-1.334.332-2.667.665-4 1l1.914 1.293c7.75 5.416 14.489 11.568 21.323 18.074 1.85 1.713 3.75 3.35 5.665 4.988 4.45 3.866 8.462 8.083 12.473 12.395l2.152 2.285c2.728 2.914 5.254 5.637 7.473 8.965-9.94-.994-18.93-7.139-25.25-14.688L386 485l-2.313-1.813c-2.231-1.816-3.847-3.453-5.687-5.625-3.386-3.952-6.965-7.678-10.625-11.375l-1.668-1.706c-3.046-3.054-5.94-5.325-9.707-7.481l-1-2a82.873 82.873 0 0 0-5.563-2.125l-3.066-1.07L344 451c3.212-2.142 6.55-3.849 10-5.563l1.906-.958c2.674-1.335 5.255-2.533 8.094-3.479l-3-1 2-3c-2.992.775-2.992.775-6 2l-1 3a101.742 101.742 0 0 1-7.813 3.563c-1.444.604-2.888 1.21-4.332 1.816l-2.041.848A77.737 77.737 0 0 0 336 451l2.02.41c19.996 4.67 34.621 22.338 45.98 38.59l1 3c-7.79-1.51-13.71-8.485-19.367-13.64-9.341-8.371-19.253-16.944-30.633-22.36l-1 1 1.434 1.066 2.003 1.497 1.934 1.44L342 464l1.922 1.406c6.466 4.84 12.02 10.373 17.64 16.156C372.512 492.827 382.44 501.353 398 505h3l-3-3c5.75-.125 5.75-.125 8 1 1.373.15 2.753.248 4.133.316l2.441.127 2.551.12 2.574.13c2.1.107 4.2.207 6.301.307.25 2.313.25 2.313 0 5-2.899 2.79-4.997 3.389-8.965 3.434-.959.01-1.918.022-2.906.034l-3.067-.03-3.135-.02c-7.97-.161-14.568-1.207-21.927-4.418l-2.203-.875c-5.995-2.643-10.815-6.95-15.797-11.125l-1.723-1.348c-2.8-2.203-5.132-4.58-7.425-7.285-4.554-5.254-9.522-10.055-14.506-14.894l-2.092-2.059-1.896-1.845C337 467 337 467 337 465h-4l-.77 3.324c-.347 1.455-.694 2.91-1.043 4.363l-.501 2.186c-1.01 4.168-2.139 7.589-4.686 11.127h-1c-.369-19.005-.369-19.005 2-27l-5-1v-2h9v-2h-2c.835-8.852 3.269-16.957 6.25-25.313 2.66-7.857 4.598-15.87 6.5-23.937l.927-3.876c1.685-7.292 2.91-14.397 3.323-21.874h2c6.893 18.114-.41 42.082-6.73 59.48-.915 2.535-1.654 4.914-2.27 7.52l2.895-1.941a11314.346 11314.346 0 0 1 5.986-4.006 460.955 460.955 0 0 1 11.994-7.74c4.967-3.143 9.587-6.581 14.125-10.313l2.195-1.785c4.102-3.443 6.948-6.71 9.805-11.215h2c1.687-6.539 2.006-13.837-1-20-1.85-1.258-1.85-1.258-4-2-2.25-1.5-2.25-1.5-4-3v-2l-1.938-.313c-2.499-.56-4.619-1.26-7-2.156-5.632-1.899-11.224-2.313-17.125-2.719l-3.2-.248A994.353 994.353 0 0 0 342 376l.07 2.79c.2 14.038-1.881 26.83-6.07 40.21h-2l-.25 2.813c-1.333 9.203-5.82 17.86-9.75 26.187h-1c-.65-11.373 1.418-22.22 4.938-32.988 2.407-7.673 3.626-15.394 4.812-23.325.222-1.434.444-2.868.668-4.302.537-3.46 1.063-6.922 1.582-10.385h-3l-.078 2.316c-.436 8.234-2.054 15.617-4.322 23.522-1.142 4.115-2.142 8.266-3.163 12.412-1.72 6.943-3.495 13.865-5.437 20.75h-2l-.148 2.055-.227 2.82c-.07.905-.14 1.81-.21 2.742-.34 2.77-.833 5.353-1.435 8.07-1.129 5.506-1.323 10.83-1.293 16.438l.004 3.012c.112 8.624 1.389 16.463 3.309 24.863v-25l3-1c1.106 2.213 1.251 3.728 1.465 6.184l.233 2.547.24 2.707c.679 7.267 1.522 14.417 3.062 21.562l-6-3 1 3c-3.214-1.108-3.991-1.985-5.75-5-1.25-3-1.25-3-1.25-5h-2c-4.864-16.569-8.32-39.987 0-56a62.18 62.18 0 0 0 .875-4.25c2.095-10.99 4.844-21.392 8.97-31.784 2.635-6.828 3.974-13.754 5.155-20.966l-3.648 1.313-4.727 1.687-2.406.867-2.305.82-2.126.762C309 386 309 386 307 386c1.056-3.284 2.617-4.572 5.5-6.25C316 378 316 378 318 378l-1-3-2.313 1.563L312 378l-3-1c6.241-8.002 13.287-12.985 23-16h3v-2h-4l1-3c2.695-1.133 2.695-1.133 6.125-2.125l3.383-1.008c17.181-4.266 36.669-2.917 52.492 5.133Z" fill="#C35530"/><path d="m1511.133 288.886 2.777.016 2.7.008 3.453.027L1531 289v37c10.441-.08 10.441-.08 20.882-.18l3.923-.015 2.062-.031c1.713-.001 3.425.103 5.133.226 2.943 2.943 2.95 5.137 3.188 9.25C1566 339 1566 339 1564 347h-33c.299 12.02.299 12.02.613 24.04.132 4.908.263 9.817.382 14.726.096 3.962.2 7.923.31 11.885.041 1.504.079 3.009.113 4.513.323 15.479.323 15.479 5.582 29.836v2c3.023.87 5.773 1.146 8.914 1.21.926.03 1.851.058 2.805.087 1.945.052 3.89.096 5.836.133l2.797.093 2.557.06L1563 436c2.68 4.019 2.156 6.242 2 11-2.662 1.301-5.33 2.59-8 3.875l-2.254 1.105c-14.717 7.039-32.273 8.365-47.746 3.02-6.79-2.91-10.807-7.401-14-14-3.414-10.874-3.4-21.602-3.293-32.867a2900.606 2900.606 0 0 1 .087-19.18c.031-4.733.044-9.466.06-14.2.031-9.25.083-18.502.146-27.753l-1.896.048c-2.826.062-5.652.101-8.479.14l-2.984.076-2.852.029-2.634.048L1469 347c-2.16-3.24-2.272-4.249-2.25-8l-.016-2.625C1467 334 1467 334 1469 331a143.202 143.202 0 0 1 8.125-2.75c13.45-4.542 18.595-11.88 24.888-24.229 1.894-3.88 3.551-7.835 5.112-11.86 1.267-3.129 1.267-3.129 4.008-3.275Z" fill="#F6F6F6"/><path d="M650 502c7.303-.047 14.606-.082 21.91-.104 3.392-.01 6.785-.024 10.178-.047 44.813-.28 44.813-.28 59.299 13.366 10.073 11.147 10.266 24.97 9.788 39.118-.772 11.781-6.485 21.438-14.925 29.48-15.475 12.575-35.594 11.628-54.398 11.468-3.767-.031-7.534-.04-11.301-.047-2.39-.009-4.779-.02-7.168-.03l-3.421-.014-3.13-.029-2.763-.02C652 595 652 595 651 594a99.984 99.984 0 0 1 0-5l1.645-.734 2.168-1.016 2.144-.984c2.463-1.526 3.542-2.78 5.043-5.266.447-2.95.447-2.95.372-6.25l.02-3.833-.029-4.132c0-1.417 0-2.834.002-4.251 0-2.969-.01-5.937-.029-8.905a1470.52 1470.52 0 0 1-.016-11.392c.003-2.926-.004-5.852-.013-8.779-.004-1.4-.005-2.8-.004-4.2 0-1.959-.014-3.919-.028-5.879l-.014-3.375c-.27-3.098-.816-5.256-2.261-8.004-3.217-1.958-6.3-3.288-10-4v-6Z" fill="#C95731"/><path d="M1392.754 333.281c10.82 8.28 14.49 20.72 16.559 33.656.865 8.416.929 16.86 1 25.313l.029 2.082c.166 13.89-1.52 30.588-11.6 41.195-6.216 5.255-12.691 6.077-20.66 5.79-7.47-.767-13.078-3.676-18.082-9.317-10.298-15.321-12.362-32.95-12.375-51l-.005-3.647c.189-15.251 2.43-30.848 13.38-42.353 8.925-6.962 21.96-7.509 31.754-1.719Z" fill="#221F20"/><path d="M1081 491v50l6-4c8.623-4.149 20.77-4.952 29.918-2.086 5.98 3.105 10.253 7.603 12.895 13.836 2.768 9.513 2.865 20.934-1.376 29.938-5.256 8.86-10.664 13.134-20.437 16.312l-3 1a65.8 65.8 0 0 1-4.21.133l-2.507.005-2.658-.013-2.71.003c-6.244-.025-12.295-.431-18.481-1.3L1072 595c-1.67 1.922-1.67 1.922-3 4-3.125.313-3.125.313-6 0-1-1-1-1-1.107-4.059.003-1.388.012-2.776.025-4.164l.01-2.291c.007-1.65.016-3.298.027-4.947.018-2.615.028-5.23.036-7.846.025-7.439.06-14.878.105-22.317.027-4.546.044-9.092.055-13.639.006-1.728.016-3.457.03-5.186.306-12.453.306-12.453-2.181-24.551-1.78-1.544-3.447-2.658-5.54-3.734-1.46-1.266-1.46-1.266-1.67-3.907L1053 500c20.215-10.946 20.215-10.946 28-9Z" fill="#CA5831"/><path d="M394 358v2l2 .563c9.641 4.62 16.599 13.419 20.336 23.203C417 386 417 386 417 389h2c.394 19.08-2.768 31.324-16.313 45.75C398.66 438.6 391.752 445 386 445l-1 3c-1.794.784-1.794.784-4.113 1.352l-2.533.64-2.666.633-2.631.656A945.81 945.81 0 0 1 366 453c-1.334.332-2.667.665-4 1l1.914 1.293c7.75 5.416 14.489 11.568 21.323 18.074 1.85 1.713 3.75 3.35 5.665 4.988 4.45 3.866 8.462 8.083 12.473 12.395l2.152 2.285c2.728 2.914 5.254 5.637 7.473 8.965-9.94-.994-18.93-7.139-25.25-14.688L386 485l-2.313-1.813c-2.231-1.816-3.847-3.453-5.687-5.625-3.386-3.952-6.965-7.678-10.625-11.375l-1.668-1.706c-3.046-3.054-5.94-5.325-9.707-7.481l-1-2a82.873 82.873 0 0 0-5.563-2.125l-3.066-1.07L344 451c3.212-2.142 6.55-3.849 10-5.563l1.906-.958c2.674-1.335 5.255-2.533 8.094-3.479l-3-1c3.163-4.493 6.612-6.919 11.188-9.75 7.148-4.593 13.994-9.524 18.421-16.95C392 411 392 411 394 410c2.395-6.934 2.833-13.851-.188-20.688L392 387l-1.285-1.71c-3.458-4.371-6.815-6.696-11.715-9.29l-1-2c-8.105-3.346-16.94-3.318-25.563-3.375l-3.15-.042c-7.473.044-14.132 1.315-21.287 3.417l-3.069.895A482.389 482.389 0 0 0 318 377l-1-2-2.313 1.563L312 378l-3-1c6.241-8.002 13.287-12.985 23-16h3v-2h-4l1-3c2.695-1.133 2.695-1.133 6.125-2.125l3.383-1.008c17.181-4.266 36.669-2.917 52.492 5.133Z" fill="#603323"/><path d="M773.75 268.063c7.59 6.396 11.888 15.178 13.25 24.937.815 10.303 1.47 20.845-4 30l-1.938 3.313c-3.977 5.182-8.1 8.966-14.062 11.687l-2.46 1.137c-11.13 4.252-23.793 3.807-35.54 2.863-1.917-1.917-1.13-4.759-1.139-7.309l.006-2.71-.003-2.812c0-1.982.001-3.963.006-5.945.005-2.958 0-5.916-.007-8.874-.004-9.473.118-18.926.563-28.39l.11-2.452c.791-14.952.791-14.952 5.257-19.223 10.895-6.344 30.192-3.066 39.957 3.777Z" fill="#232021"/><path d="m1033 536 3.125 1.188c5.543 3.494 10.427 8.878 12.438 15.222 1.906 11.287 1.428 22.123-5.036 31.793-4.253 5.43-9.23 8.185-15.527 10.797l-2.383 1.117c-8.67 2.925-19.914 1.452-28.176-2.27-7.34-3.937-11.44-8.946-14.57-16.613-2.194-8.146-2.38-18.305 1.379-25.984A84.368 84.368 0 0 1 987 547l1.75-2.75c11.769-11.769 28.913-15.189 44.25-8.25Z" fill="#C95731"/><path d="M691.73 509.406c1.486 0 2.973.034 4.457.094l2.328.054c7.647.29 13.944 1.76 19.485 7.446 7.17 10.229 8.362 18.39 8.375 30.688l.074 3.646c.035 10.635-1.614 21.169-9.355 29.041-7.146 5.546-15.26 6.087-24.028 6.254C690 586 690 586 687.652 583.839c-2.744-4.715-2.778-9.584-2.813-14.949l-.03-3.59-.012-3.835-.017-3.974c-.01-2.768-.017-5.536-.02-8.304-.006-3.54-.03-7.079-.058-10.618-.023-3.389-.025-6.778-.03-10.167l-.038-3.841.01-3.58-.011-3.142c.667-5.153 1.861-7.6 7.097-8.433Z" fill="#211E1F"/><path d="M929 502h47v6l-1.934.84-2.504 1.098-2.496 1.09c-2.01.803-2.01.803-3.066 1.972-1.214 7.022-1.095 13.973-1.027 21.082l.037 7.701c.025 4.016.052 8.031.086 12.046.03 3.897.048 7.794.064 11.69l.04 3.597c.046 15.087-2.623 26.324-13.2 37.509-7.067 6.747-15.661 13.224-25 16.375-2.188-.063-2.188-.063-4-1-1.783-3.298-2-5.177-2-9l2.23-.516c7.015-1.742 11.623-3.264 15.77-9.484 2.73-9.153 2.293-18.855 2.266-28.305l.005-4.961c.003-3.444 0-6.888-.01-10.333-.012-4.408-.005-8.816.007-13.224.007-3.406.005-6.811 0-10.217-.002-1.626 0-3.252.005-4.878.005-2.268-.003-4.536-.014-6.804l-.005-3.903c-.247-3.277-.737-5.479-2.254-8.375-3.204-2.425-6.042-3.435-10-4v-6Z" fill="#CA5831"/><path d="M808 536c5.495 3.392 9.016 7.855 11 14 .664 3.332 1.19 6.599 1 10-2 2-2 2-5.807 2.227-1.64 0-3.28-.012-4.92-.032l-2.614-.008c-2.762-.011-5.523-.037-8.284-.062-1.87-.01-3.74-.02-5.61-.027-4.588-.022-9.176-.057-13.765-.098.287 1.596.583 3.191.883 4.785l.496 2.692c1.08 4.385 3.32 7.345 6.621 10.336 3.853 2.287 7.374 2.285 11.79 2.18l3.35-.052c2.332-.044 4.662-.096 6.993-.156l3.344-.043 3.065-.067L818 582c2 3 2 3 2 6-12.544 7.099-27.217 11.832-41.625 8-7.118-2.735-12.74-7.873-15.875-14.813A98.47 98.47 0 0 1 761 577l-1-3c-.8-11.559-.328-20.965 7.25-30.313C777.899 532.4 793.795 529.374 808 536ZM1189 535c.027 2.98.047 5.958.063 8.938l.025 2.576.01 2.45.016 2.27C1189 553 1189 553 1188 554c-1.666.04-3.334.043-5 0l-.848-1.863c-2.055-4.144-3.429-6.678-7.402-9.2-4.306-1.076-8.337-1.596-12.75-.937l-3 2c-.296 2.845-.296 2.845 1 6 4.703 3.383 10.329 5.154 15.75 7.063 5.802 2.07 10.4 4.019 13.625 9.5 2.51 5.685 2.984 11.889.742 17.742-3.283 5.762-7.79 9.355-13.89 11.812-9.985 2.732-21.642 1.19-31.45-1.793C1143 593 1143 593 1142.172 590.137l-.422-3.45c-.15-1.13-.3-2.26-.453-3.425-.254-2.79-.44-5.465-.297-8.262 1-1 1-1 4.063-1.063L1148 574l.7 1.61c2.563 5.554 5.103 8.563 10.487 11.64 5.178 1.38 10.724 1.446 15.813-.25v-9l-4.25-1.188c-19.534-5.91-19.534-5.91-25.625-14.437-1.971-5.913-1.966-11.754-.063-17.688 4.276-5.93 8.946-9.392 16.07-11.222 9.394-1.523 18.652-.572 27.868 1.535Z" fill="#C85731"/><path d="M823 535h38v6l-6 2c1.223 9.045 5.26 17.275 10 25 3.56-1.78 4.249-6.116 5.625-9.688l.984-2.435c1.732-4.45 2.815-8.018 2.391-12.877l-7-2v-6h29v6l-2.688 1c-9.763 5.895-14.858 22.963-19.683 33.008l-.889 1.85a3699.6 3699.6 0 0 0-4.435 9.264l-1.645 3.437-1.48 3.103C864 595 864 595 863 596c-2.333.04-4.667.042-7 0l-1.243-2.697c-4.17-9.01-8.471-17.947-12.901-26.832-1.059-2.127-2.109-4.258-3.159-6.389-.683-1.374-1.368-2.748-2.052-4.121l-.932-1.9c-3.207-6.382-6.086-10.2-12.713-13.061v-6Z" fill="#C95731"/><path d="M394 358v2l2 .563c9.641 4.62 16.599 13.419 20.336 23.203C417 386 417 386 417 389h2c.394 19.08-2.768 31.324-16.313 45.75C398.66 438.6 391.752 445 386 445l-1 3c-1.794.784-1.794.784-4.113 1.352l-2.533.64-2.666.633-2.631.656A945.81 945.81 0 0 1 366 453c-1.334.332-2.667.665-4 1l1.914 1.293c7.75 5.416 14.489 11.568 21.323 18.074 1.85 1.713 3.75 3.35 5.665 4.988 4.45 3.866 8.462 8.083 12.473 12.395l2.152 2.285c2.728 2.914 5.254 5.637 7.473 8.965-9.94-.994-18.93-7.139-25.25-14.688L386 485l-2.313-1.813c-2.231-1.816-3.847-3.453-5.687-5.625-3.386-3.952-6.965-7.678-10.625-11.375l-1.668-1.706c-3.046-3.054-5.94-5.325-9.707-7.481l-1-2a82.873 82.873 0 0 0-5.563-2.125l-3.066-1.07L344 451c3.14-2.094 6.387-3.804 9.75-5.5l1.805-.934c3.064-1.545 6.025-2.794 9.336-3.66L368 440l1-2c2.066-.633 2.066-.633 4.563-1.125l2.503-.508L378 436c-3.29 4.848-7.091 7.107-12.125 9.813l-2.207 1.232C358.294 450 358.294 450 356 450v2c16.262-4.285 31.736-12.266 43-25l1.586-1.762c7.63-9.236 10.683-20.186 10.023-32.008-.934-8.596-5.197-16.446-11.546-22.293A104.756 104.756 0 0 0 395 368l-1.723-1.313c-4.408-3.1-9.276-5.013-14.277-6.937l-2.014-.783c-13.167-4.854-28.26-3.423-41.986-1.967 14.935-11.705 43.423-6.925 59 1Z" fill="#C45530"/><path d="M951.742 331.816c6.64 3.48 9.445 9.53 12.258 16.184 1.111 3.757 1.428 7.076 1 11-6.068 5.676-17.471 5.493-25.313 6.125l-3.056.257c-6.895.553-13.713.886-20.631.618-.452-12.015 1.537-21.356 9.313-30.813 8.648-7.039 16.27-7.86 26.43-3.37ZM1655 333c6.343 4.147 9.666 10.01 11.602 17.25.678 4.166.42 7.07-1.602 10.75-12.622 6.512-33.089 5.42-47 5-.803-11.33 1.856-21.983 9-31 8.434-8.218 18.402-7.405 28-2Z" fill="#242122"/><path d="M1019 540c4.488 1.899 6.299 4.07 8.148 8.43 2.226 5.825 2.38 11.144 2.227 17.32l-.004 3.035c-.06 5.118-.348 9.434-2.371 14.215l-.875 2.25c-1.446 2.25-2.664 2.73-5.125 3.75-4.144.773-8.229 1.145-11.879-1.215-7.763-8.27-7.869-19.538-7.543-30.254.423-6.49 2.444-11.873 7.352-16.254 3.247-2.003 6.425-1.875 10.07-1.277Z" fill="#221E1F"/><path d="m1090.188 545.75 2.29-.063c4.913-.034 8.3.536 12.522 3.313 1.645 1.867 1.645 1.867 2.813 3.875l1.207 1.992c3.207 6.977 3.628 17.597 1.003 24.82-2.153 3.595-4.01 5.858-8.023 7.313-3.277.3-3.277.3-6.938.313l-3.652.05c-3.714-.395-5.534-1.002-8.41-3.363-2.178-4.167-2.245-7.8-2.23-12.453v-2.124c.004-1.472.012-2.945.024-4.417.019-2.263.02-4.525.02-6.787.043-12.407.043-12.407 9.373-12.469Z" fill="#231E1F"/><path d="m363 436 2 1-3 3 7-1c-1 2-1 2-3.879 3.113l-3.683 1.2c-5.706 1.92-10.502 4.232-15.438 7.687l10 4v2l2.207.725c3.206 1.463 5.018 3.158 7.48 5.67l2.618 2.646 2.695 2.772 2.695 2.736c1.664 1.69 3.324 3.382 4.98 5.08a439.842 439.842 0 0 0 4.967 4.982C386 484 386 484 388.422 487.02c8.393 9.703 19.101 14.626 31.64 15.668 1.979.115 3.958.223 5.938.312v3h-2v-2l-3.691.035-4.872.027-2.423.026c-4.786.02-9.295-.284-14.014-1.088l3 3c-10.236-.93-19.277-4.186-27-11-.697-.59-1.395-1.18-2.113-1.79-6.544-5.696-12.603-11.874-18.647-18.094A104.133 104.133 0 0 0 340 463l-8-6c3-1 3-1 4.805-.355 10.556 5.955 19.597 13.652 28.367 21.938 9.03 8.635 9.03 8.635 19.828 14.417-6.02-8.437-12.516-16.128-19.68-23.612a216.638 216.638 0 0 1-3.289-3.552C354.445 457.713 345.784 454.112 335 452c1.253-2.505 2.201-2.749 4.71-3.91l2.274-1.06 2.391-1.092 2.367-1.104c3.07-1.422 6.046-2.763 9.258-3.834l1.438-1.438c1.744-1.744 3.266-2.673 5.562-3.562Z" fill="#633424"/><path d="M384 365c2.191.696 2.191.696 4 1v2l2.5.5c5.983 2.564 10.086 7.174 13.438 12.688 3.267 8.649 2.947 17.93.062 26.64-1.471 3.195-3.283 4.97-6 7.172l.48-1.957c1.734-10.15 2.1-22.075-3.48-31.043-7.025-9.091-18.94-13.466-30-15-14.852-1.207-29.644.057-43.672 5.195C319 373 319 373 317 373v2c-2.313 1.688-2.313 1.688-5 3l-3-1c8.3-10.641 18.067-15.227 31.305-17.59 13.997-1.554 31.454-2.285 43.695 5.59Z" fill="#C25530"/><path d="m457 582 2 1a311.784 311.784 0 0 1-3.313 3l-1.863 1.688C452 589 452 589 449 589v2l-2.484 1.207-3.266 1.606-3.234 1.582c-2.972 1.465-2.972 1.465-5.157 3.304C433 600 433 600 429 600v2c-3 2-3 2-7 2v2h-5v2a111.322 111.322 0 0 1-5 3 443.581 443.581 0 0 0-4.438 3.25c-5.192 3.687-10.617 6.378-16.363 9.074-3.104 1.626-5.491 3.473-8.199 5.676a114.139 114.139 0 0 1-5.938 3.25l-3.027 1.578c-3.279 1.266-5.552 1.499-9.035 1.172-2.063-1.375-2.063-1.375-4-3a88.182 88.182 0 0 0-5-2v-2l-6-1-1-3-2.125-.313c-3.266-.78-5.922-2.108-8.875-3.687v-2l-2.25-.375c-2.551-.58-4.477-1.362-6.75-2.625v-2l-1.625-.313c-3-.868-5.613-2.243-8.375-3.687 2.606-.93 3.642-1.15 6.25-.063L327 610v2l2.313.438C332 613 332 613 335 614v2l2.125.813c3.04 1.255 5.948 2.69 8.875 4.187v2l2.063.25c3.812.973 6.578 2.708 9.937 4.75v2h5v2h3v2h3v-2h4v-2c1.622-.838 3.248-1.67 4.875-2.5l2.742-1.406C383 625 383 625 385 625v-2h3v-2l2.25-.25c2.825-.519 2.825-.519 4.5-2.563 3.332-3.24 8.48-6.187 13.25-6.187v-2c2.905-2.042 4.401-3 8-3v-2h3v-2l9-2v-2l4-1v-2l7-2v-2c3.135-1.858 5.375-2.201 9-2v-2h3v-3h3v-2l3-1Z" fill="#3D2720"/><path d="M793 540c3.45 2.1 5.711 4.133 7 8 .125 2.75.125 2.75 0 5-6.701 3.705-14.534 3.119-22 3 .438-5.168.832-8.735 4-13l1.188-1.813c3.061-2.005 6.335-1.805 9.812-1.187Z" fill="#251F1F"/><path d="M192 332h1l1 202 6 2v2h3v2l2.688.813c3.08 1.104 5.574 2.415 8.312 4.187l-1 2-12-6v-2l-2.813-.875C195 537 195 537 192 535c-.294-2.724-.391-5.22-.36-7.947l-.009-2.517c-.004-2.8.012-5.599.028-8.398v-6c-.002-5.445.016-10.888.037-16.332.019-5.685.02-11.369.024-17.053.01-10.77.034-21.54.064-32.31.033-12.258.05-24.517.065-36.775.031-25.223.084-50.446.151-75.668Z" fill="#3C2720"/><path d="m339 355 1 1c2.335-.323 4.668-.659 7-1 12.979-.574 24.003.617 36.125 5.313l2.302.86c2.143.878 2.143.878 5.573 2.827.992 2.73.992 2.73 1 5l-4-1v-2l-2-.313c-3-.687-3-.687-6.625-2.125-13.984-5.263-29.764-4.4-44.375-2.562v-2h-4c1-3 1-3 3.438-4.25C337 354 337 354 339 355Z" fill="#673524"/><path d="m536 328 7 2c.047 26.694.082 53.388.104 80.082.01 12.394.024 24.788.047 37.182.02 10.798.033 21.597.037 32.396.003 5.721.009 11.442.023 17.163.014 5.38.018 10.76.015 16.138 0 1.98.005 3.96.012 5.939.01 2.692.008 5.384.003 8.077l.017 2.4c-.03 5.395-.03 5.395-2.258 7.623-2.625.625-2.625.625-5 1v-2l6-2V332l-5-2-1-2Z" fill="#442920"/><path d="M312 463h1l.113 3.156c.443 10.223 1.81 19.82 3.887 29.844v-25l3-1c1.106 2.213 1.251 3.728 1.465 6.184l.233 2.547.24 2.707c.679 7.267 1.522 14.417 3.062 21.562l-6-3 1 3c-3.214-1.108-3.991-1.985-5.75-5-1.25-3-1.25-3-1.25-5h-2l-1-5 2 1v-26Z" fill="#B7512F"/><path d="M216 548c1.4.403 2.795.823 4.188 1.25l2.355.703c2.94 1.253 4.975 3.042 7.457 5.047a135.174 135.174 0 0 0 6.125 3.125c3.127 1.505 5.984 2.947 8.875 4.875v2l9 2v2l2.938.813L260 571l1 3h4v2l3.063.75c4.09 1.166 7.356 2.958 10.937 5.25l1 2c2.01 1.057 2.01 1.057 4.375 2 2.82 1.176 5.059 2.29 7.625 4v2c-1.938-.375-1.938-.375-4-1l-1-2c-2.527-.656-2.527-.656-5-1v-2l-1.813-.438c-1.749-.45-3.474-.99-5.187-1.562v-2l-1.66-.32c-2.85-.828-5.186-2.11-7.777-3.555l-2.81-1.555L260 575l-2.848-1.57L255 572v-2l-2.125-.313c-3.266-.78-5.922-2.108-8.875-3.687v-2h-3v-2l-3.813-1.063c-6.024-1.989-10.946-5.443-16.187-8.937l-2.828-1.656L216 549v-1Z" fill="#3D2720"/><path d="M398 502c5.75-.125 5.75-.125 8 1 1.373.15 2.753.248 4.133.316l2.441.127 2.551.12 2.574.13c2.1.107 4.2.207 6.301.307.188 4.773.188 4.773-1.5 6.813-3.623 1.72-6.51 1.386-10.5 1.187v-1l6-1-1.817-.228c-2.75-.35-5.498-.717-8.245-1.084l-2.858-.358c-5.525-.75-10.076-1.853-15.08-4.33 2.633-1.316 3.802-.748 6.625-.063l2.477.59L401 505l-3-3Z" fill="#823F28"/><path d="M342 376h1c2.364 19.422-.455 37.879-8 56l-2-2-2 1 3-12h2l.367-1.871.508-2.567.492-2.496c.344-1.665.699-3.33 1.11-4.98 1.584-6.508 2.158-12.98 2.648-19.649l.262-3.345c.21-2.697.414-5.394.613-8.092Z" fill="#6E3725"/><path d="m291 274 2 1c-3.799 3.42-7.808 5.444-12.367 7.629-3.431 1.787-6.508 3.951-9.625 6.234C269 290 269 290 265 290v2l-3.438 1.375c-3.61 1.196-3.61 1.196-4.562 3.625a97.624 97.624 0 0 1-5.063 2.813c-3.513 1.86-6.92 3.763-10.25 5.937-3.113 2.001-6.142 3.153-9.687 4.25l-2 2h-3l-1 3-4-1h2v-3h4v-2a1913.12 1913.12 0 0 1 5.75-2.438l3.234-1.37c2.357-.932 4.546-1.67 7.016-2.192v-3l1.688-.7c4.849-2.072 9.229-4.37 13.585-7.347C261 291 261 291 264 291v-2c2.561-2.296 3.48-3 7-3v-2h4v-2l3.5-1.188c4.005-1.475 7.337-3.496 10.836-5.921L291 274Z" fill="#412821"/><path d="M332 377h3c-.57 8.271-1.562 16.388-2.938 24.563l-.513 3.228-.514 3.088-.457 2.768C330 413 330 413 328 416l-1-4-3 3c1.97-9.558 3.964-19.08 6.406-28.531.757-3.148 1.229-6.254 1.594-9.469Z" fill="#6B3725"/><path d="m370 231 1 2-2.14.348c-3.094.705-5.724 1.775-8.61 3.09l-2.922 1.308c-2.459 1.037-2.459 1.037-3.328 3.254-6.235 4-6.235 4-11 4v2c-1.617.929-3.234 1.856-4.855 2.777-1.508.86-3.01 1.728-4.508 2.602l-2.387 1.371-2.234 1.297C327 256 327 256 324 256l-1 3c-1.742 1.168-1.742 1.168-3.875 2.188l-2.117 1.042C315 263 315 263 312 263v2l-6 2c3.33-3.747 6.343-5.854 10.875-7.957 2.937-1.442 5.63-3.201 8.363-4.992C327 253 327 253 330 252l1.75-1.875c2.318-2.189 4.37-3.064 7.313-4.2 3.05-1.457 5.538-3.58 8.14-5.718C349 239 349 239 352 239v-2l1.828-.55c4.98-1.516 4.98-1.516 9.422-4.137 2.316-1.737 3.929-1.548 6.75-1.313Z" fill="#412821"/><path d="M480 296h4v2h3v2l9 2v2l1.75.375c2.273.631 4.175 1.514 6.25 2.625v2l1.813.438c1.749.45 3.474.99 5.187 1.562v2l1.734.371c2.366.657 4.338 1.566 6.516 2.692l2.14 1.097 1.61.84v2h4v2l1.813.375C531 323 531 323 534 325v2l2 1h-4v-2l-2.063-.813c-3.334-1.348-6.634-2.762-9.937-4.187v-2h-3v-2l-3.438-.813L510 315l-1-3-2.375-.438C504 311 504 311 502 310v-2l-2.25-.375c-2.551-.58-4.477-1.362-6.75-2.625v-2l-1.813-.438c-1.749-.45-3.474-.99-5.187-1.562v-2l-1.875-.375C482 298 482 298 480 296ZM408 254c5.299 1.298 9.345 3.15 14 6v2h4v2h3v2l2 .25c5.312 1.328 9.92 3.13 13 7.75 2.563.73 2.563.73 5 1v2l4 1v2h4v2l5 2c-3 1-3 1-5.188.063L455 283v-2l-1.75-.375c-2.273-.631-4.175-1.514-6.25-2.625v-2l-2.313-.438C442 275 442 275 439 274v-2l-7-2v-2l-4-1v-2h-5v-2l-1.64-.309c-2.966-.869-5.415-2.246-8.11-3.753l-2.984-1.66L408 256v-2Z" fill="#3C2720"/><path d="m533 538 2 1c-3.64 4.246-7.334 6.298-12.367 8.672-3.416 1.723-6.494 3.807-9.625 5.996C509.33 556.108 507.542 557 503 557v2l-1.758.7c-5.235 2.185-9.005 4.556-13.242 8.3-2.188 1.375-2.188 1.375-4 2l-3-1 5-2v-2c12.069-7 12.069-7 15-7v-2c5.243-3.115 10.047-5.607 16-7v-2l1.75-.25c2.43-.618 2.43-.618 4.25-2.813 2-1.937 2-1.937 6-1.937v-2c1.875-1.063 1.875-1.063 4-2Z" fill="#3D2720"/><path d="m339 355 1 1c2.335-.323 4.668-.659 7-1 9.248-.41 17.96-.145 27 2-3.416.943-6.451 1.08-10 1v1l-1.693.076c-2.582.117-5.163.24-7.745.361l-2.662.12c-5.67.272-11.264.76-16.9 1.443v-2h-4c1-3 1-3 3.438-4.25C337 354 337 354 339 355Z" fill="#823E28"/><path d="m363 436 2 1-3 3 7-1c-1 2-1 2-3.879 3.113l-3.683 1.2c-5.042 1.697-9.517 3.61-13.887 6.671C346 451 346 451 343 452l-3-4 3.395-1.426 4.418-1.887 2.236-.935 2.158-.928 1.984-.84c1.988-1.081 3.257-2.351 4.809-3.984 2.063-1.25 2.063-1.25 4-2Z" fill="#703825"/><path d="M312 463h1l.113 3.156c.442 10.18 1.756 19.884 3.887 29.844l2-3c.544 3.058 1 5.888 1 9h-3c-4-6.75-4-6.75-4-9h-2l-1-5 2 1v-26Z" fill="#AA4C2D"/><path d="m331 454 6 2-4 1 1 2-6-1-1 22 2-4 1 2c-2.484 6.742-2.484 6.742-5 8-.369-19.005-.369-19.005 2-27l-5-1v-2h9v-2Z" fill="#9E482C"/><path d="m377 444 2 1-5 3c4.03-.553 8.02-1.156 12-2-1 2-1 2-2.762 2.654l-2.281.565-2.506.636-2.639.645c-5.34 1.334-10.616 2.663-15.812 4.5v-2l-2-1 2.379-.988 3.183-1.325 3.31-1.37a263.913 263.913 0 0 0 7.253-3.192L377 444Z" fill="#AA4C2D"/><path d="M332 377h3a212.167 212.167 0 0 1-3 24l-3 1 .434-3.438c.564-4.518 1.1-9.04 1.628-13.562l.276-2.348L332 377Z" fill="#6E3825"/><path d="M398 502c5.75-.125 5.75-.125 8 1 1.373.15 2.753.248 4.133.316l2.441.127 2.551.12 2.574.13c2.1.107 4.2.207 6.301.307v2c-7.943 2.648-17.444 1.453-25-2l-1-2Z" fill="#B4502E"/><path d="M371 233h4v2h4v2h4v3l2.375.438C388 241 388 241 390 242v2l1.738.414a81.385 81.385 0 0 1 6.45 1.961c.694.235 1.39.47 2.105.71C402 248 402 248 403 251a257490288.336 257490288.336 0 0 0-6.836-2.246C394 248 394 248 392 247v-2h-3v-2l-1.563-.25c-3.441-1.059-6.363-2.92-9.437-4.75-1.311-.752-2.624-1.503-3.938-2.25L371 234v-1Z" fill="#3F2721"/><path d="M292 592h5v2l1.813.438c1.749.45 3.474.99 5.187 1.562v2l4 1v2h4v2h3v2l4 1c-1.688.75-1.688.75-4 1a115.013 115.013 0 0 1-5-4c-2.615-1.446-5.293-2.737-8-4v-2l-2.188-.25c-3.365-.898-5.228-2.461-7.812-4.75Z" fill="#402821"/><path d="m369 443 2 1-2 2v3c-8.429 3.429-8.429 3.429-13 3v-2a872.125 872.125 0 0 1 6.375-3.563l1.828-1.037c1.567-.861 3.18-1.637 4.797-2.4Z" fill="#703825"/><path d="m222 317-2.012.953-2.675 1.297-2.637 1.266c-2.736 1.418-2.736 1.418-5.121 3.449-2.782 2.216-5.566 3.757-8.743 5.348l-3.167 1.613L195 332l-2-1c4.563-3.206 9.327-5.845 14.246-8.469 3.131-1.74 6.075-3.68 9-5.746 2.275-1.018 3.453-.6 5.754.215Z" fill="#452A21"/><path d="m462 285 7 2v2h4v2h3v2h4v3c-4.535-1.217-7.638-3.05-11.32-5.824-2.099-1.47-4.257-2.368-6.68-3.176v-2Z" fill="#3C2720"/><path d="m345 378 3 1h-2l.035 2.23c.01.976.018 1.952.027 2.957l.036 2.918c-.093 2.75-.477 5.22-1.098 7.895h-2a590.393 590.393 0 0 1-.125-6.25l-.07-3.516c.185-3.062.587-4.676 2.195-7.234Z" fill="#693625"/><path d="m320 366 2 1-3.906 4.492c-1.29 1.467-1.29 1.467-1.094 3.508-2.313 1.688-2.313 1.688-5 3l-3-1c3.381-4.136 6.666-7.813 11-11Z" fill="#AE4E2E"/><path d="M326 370v2l2 2-10 3-1-4c6.75-3 6.75-3 9-3Z" fill="#6E3825"/><path d="m399 390 2 1c.168 2.77.334 5.542.5 8.313l.145 2.38.136 2.295.127 2.11c.079 1.633.092 3.268.092 4.902-2 2.188-2 2.188-4 4l.494-2.196c.476-2.637.62-4.994.604-7.667l-.01-2.686-.026-2.764-.013-2.822A1757.79 1757.79 0 0 0 399 390Z" fill="#9B472B"/><path d="M330 390c1.456 4.52.27 7.516-1 12l3-1-1 7-2-4-2 5c-1.676-4.09-.24-7.715.938-11.75l.591-2.113A643.51 643.51 0 0 1 330 390Z" fill="#894129"/><path d="M338 418c1 2 1 2 .223 4.82l-1.16 3.305-1.153 3.32L335 432l-2-2-2 1 2-8 2 3 3-8Z" fill="#7F3E27"/><path d="M332 389h1c.193 4.824-.243 8.496-2 13h-2c.48-4.714.968-8.666 3-13Z" fill="#5F3223"/><path d="M322 381c-4.963 1.915-9.866 3.61-15 5 .75-1.938.75-1.938 2-4 1.688-.688 1.688-.688 4-1l3.625-.625C320 380 320 380 322 381Z" fill="#9A472B"/><path d="m378 437-7 6c-2-3-2-3-2-5 5.625-2.125 5.625-2.125 9-1Z" fill="#B04F2E"/><path d="m363 436 2 1-3 3 7-1-1 2c-2.066.633-2.066.633-4.563 1.125l-2.503.508L359 443v-2l-2-2a100.644 100.644 0 0 1 6-3Z" fill="#7D3D27"/><path d="M360 441c-1 3-1 3-3.375 4.25C354 446 354 446 351 445c2.648-3.973 4.307-5.564 9-4Z" fill="#603323"/><path d="m339 355 1 1 4 1-13 2c1-3 1-3 3.438-4.25C337 354 337 354 339 355Z" fill="#99462B"/><path d="m466 576 4 1c-2.228 2.228-3.658 2.692-6.625 3.625-.817.26-1.635.52-2.477.79L459 582v-2c2.647-1.46 3.894-2 7-2v-2Z" fill="#452A21"/><path d="M481 570c-1 3-1 3-2.777 4.203l-2.16 1.047-2.153 1.078L472 577l-2-1a782.74 782.74 0 0 1 4.375-3l2.46-1.688C479 570 479 570 481 570Z" fill="#332320"/><path d="m342 460 5 4h-2v2c-3.875-1.75-3.875-1.75-5-4h2v-2Z" fill="#743A26"/><path d="m349 452 7 3-2 1-2-1 1 3-5-2 1-4Z" fill="#763A26"/><path d="M305 267c-1 3-1 3-2.777 4.203l-2.16 1.047-2.153 1.078L296 274l-2-1a782.74 782.74 0 0 1 4.375-3l2.46-1.688C303 267 303 267 305 267Z" fill="#472A21"/><path d="M318 493c1.063 1.813 1.063 1.813 2 4l-1 3 1 3-4-2 2-8Z" fill="#9C482B"/><path d="M313 492h3l1 7h-2c-1.46-2.647-2-3.894-2-7Z" fill="#BB522F"/></svg>